<?xml version="1.0" standalone="no"?><!DOCTYPE svg PUBLIC "-//W3C//DTD SVG 1.1//EN" "http://www.w3.org/Graphics/SVG/1.1/DTD/svg11.dtd"><svg t="1713529363273" class="icon" viewBox="0 0 1024 1024" version="1.1" xmlns="http://www.w3.org/2000/svg" p-id="22198" xmlns:xlink="http://www.w3.org/1999/xlink" width="200" height="200"><path d="M1015.430241 528.355451c36.635634 264.089233-164.181914 455.792118-425.970359 492.044287-269.103773 37.225579-491.955795-220.285758-491.955795-492.044287A492.044287 492.044287 0 0 1 589.548374 36.281666c271.758529 0 388.803774 224.090909 425.881867 492.073785z" fill="#8651ED" p-id="22199"></path><path d="M978.204662 551.481326c0 155.775186-50.49936 163.916438-141.58699 276.153625-76.220996 93.91937-466.942094 169.196453-586.435614 72.976294-86.486053-69.613603-113.771046-195.006581-113.771046-314.677085A492.044287 492.044287 0 0 1 628.455299 93.889873c97.754018 0 204.947168 9.675111 265.475606 77.666363 92.002046 103.270011 84.273756 205.920578 84.273757 379.92509z" fill="#9146FF" p-id="22200"></path><path d="M1001.419028 591.863115c-26.872031 141.026541-47.933096 163.945935-134.419148 276.183122-72.356851 93.91937-443.25577 169.196453-556.55486 72.976295-82.06146-69.613603-107.989577-195.006581-107.989577-314.677085 0-271.758529 209.135783-492.044287 467.089581-492.044288 92.798473 0 174.034008 3.274199 237.541672 80.940563 68.02075 83.418335 126.89734 205.714097 94.332332 376.621393z" fill="#8651ED" p-id="22201"></path><path d="M509.522228 1010.665632C230.861333 1010.665632 4.174663 783.978962 4.174663 505.347565S230.802339 0 509.522228 0s505.318067 226.716168 505.318067 505.347565-226.539184 505.318067-505.318067 505.318067z m0-984.118071C245.521486 26.547561 30.722224 241.346823 30.722224 505.347565s214.82876 478.770507 478.800004 478.770507 478.770507-214.769765 478.770507-478.770507S773.552467 26.547561 509.522228 26.547561z" fill="#2E3138" p-id="22202"></path><path d="M701.608577 326.092536l-9.704608-7.875776a36.075185 36.075185 0 0 0-50.617349 5.162025l-130.437014 160.19978c-1.002908-0.235978-2.035313-0.383465-3.097216-0.530951l-130.024052-159.668829a36.075185 36.075185 0 0 0-50.617349-5.162025l-9.704608 7.875776a36.075185 36.075185 0 0 0-5.191523 50.646846l95.571218 117.192732h-58.640612a35.986693 35.986693 0 0 0 0 71.973386h105.836275v47.195664h-113.859537a36.104682 36.104682 0 0 0-35.986694 35.986693 36.104682 36.104682 0 0 0 35.986694 35.986693h113.859537v88.845836a36.104682 36.104682 0 0 0 35.986694 35.986694h12.50685a36.104682 36.104682 0 0 0 35.986694-35.986694v-88.816339h123.416659a36.104682 36.104682 0 0 0 35.986693-35.986693 36.104682 36.104682 0 0 0-35.986693-35.986693h-123.564146V580.506659a34.865796 34.865796 0 0 0 6.282923-5.899458l7.079349-8.849187h117.989159a35.986693 35.986693 0 1 0 0-71.973387h-59.348547l95.512224-117.251726a36.075185 36.075185 0 0 0-5.221021-50.440365z" fill="#2E3138" p-id="22203"></path></svg>