<?xml version="1.0" standalone="no"?><!DOCTYPE svg PUBLIC "-//W3C//DTD SVG 1.1//EN" "http://www.w3.org/Graphics/SVG/1.1/DTD/svg11.dtd"><svg class="icon" width="200px" height="200.00px" viewBox="0 0 1024 1024" version="1.1" xmlns="http://www.w3.org/2000/svg"><path d="M949.288959 1024H59.839397A56.207519 56.207519 0 0 1 3.828637 967.726894v-93.673733a56.207519 56.207519 0 0 1 56.01076-56.289503h118.219433v-27.316723c-19.807084 2.410299-35.777365 2.754628-36.072504 2.754628A134.452059 134.452059 0 0 1 36.621822 575.225261a126.499712 126.499712 0 0 1 68.865689-170.524563 134.452059 134.452059 0 0 1 261.09934-4.820598 126.516108 126.516108 0 0 1 63.487607 143.322616 148.667905 148.667905 0 0 1-100.019215 258.492282c-15.937488 0-41.811311-2.557868-64.389419-6.378275l-4.918978-0.852623v23.348748H664.611318v-93.657337a197.808493 197.808493 0 0 1-120.072247-12.395824 40.991481 40.991481 0 0 1 32.989944-75.0636 115.628771 115.628771 0 0 0 106.758214-7.312881 40.991481 40.991481 0 0 1 50.435919 5.951963 137.829757 137.829757 0 0 0 79.916992 25.201563c76.244156 0 123.613911-48.451931 123.613912-126.450522 0-45.910459-14.576571-65.996285-67.8491-93.788509a40.991481 40.991481 0 0 1-15.576763-58.404663c10.887337-17.052456 24.430923-38.25325 24.430923-54.764619a101.986806 101.986806 0 0 0-75.424326-98.379556 40.991481 40.991481 0 0 1-30.333696-37.417024C771.18917 150.455134 758.858932 81.982963 700.421476 81.982963c-63.684366 0-73.177993 45.910459-73.177992 73.161596 0 1.295331 0 2.590662 0.081983 3.885992a40.991481 40.991481 0 0 1-37.121886 42.221226 101.904823 101.904823 0 0 0-64.061487 171.705118 40.991481 40.991481 0 0 1-6.64062 62.208672 117.038878 117.038878 0 0 0-13.264843 10.477423 40.991481 40.991481 0 0 1-64.258247-48.74707 184.002562 184.002562 0 0 1 105.413694-270.461795c4.689425-30.776404 17.085249-57.797989 36.548005-79.228335S639.557325 0 700.421476 0c48.681483 0 89.066291 20.971242 116.760136 60.667393 18.036252 25.906616 30.186127 59.683597 35.51502 98.756677a184.182924 184.182924 0 0 1 108.479856 167.753538c0 23.086402-7.017742 43.975661-15.970281 62.307052 18.38058 12.543393 32.104528 25.349132 43.287005 40.056876 21.31557 28.05457 31.678217 62.307052 31.678216 104.643054 0 122.728495-84.540831 208.433485-205.596874 208.433485a221.124448 221.124448 0 0 1-67.980273-10.657785v85.803368h202.694678a56.207519 56.207519 0 0 1 55.994363 56.289503v93.673733a56.207519 56.207519 0 0 1-55.994363 56.273106zM85.8116 942.017037h837.488759v-42.270416H85.8116z m157.817204-236.570038c12.395824 6.558637 63.110485 14.215846 86.344456 14.215846a66.652149 66.652149 0 0 0 30.661628-125.761865 40.991481 40.991481 0 0 1-15.576763-58.388266 44.418369 44.418369 0 0 0-25.84103-66.701339 40.991481 40.991481 0 0 1-30.317299-37.417024 52.469096 52.469096 0 0 0-104.774227 2.869404v1.820021a40.991481 40.991481 0 0 1-37.121885 42.15564 44.385576 44.385576 0 0 0-27.792225 74.768462 40.991481 40.991481 0 0 1-6.657016 62.159483 52.551079 52.551079 0 0 0 29.366297 96.051239c16.26542 0 48.02562-4.656632 56.502658-8.198296a42.139243 42.139243 0 0 1 45.156216 2.475885z m0.885416 0.655864z m-1.246141-0.852623zM197.603568 703.413822z m1.196952-0.639467z" fill="#1afa29" /></svg>