<?xml version="1.0" standalone="no"?><!DOCTYPE svg PUBLIC "-//W3C//DTD SVG 1.1//EN" "http://www.w3.org/Graphics/SVG/1.1/DTD/svg11.dtd"><svg class="icon" width="200px" height="200.00px" viewBox="0 0 1024 1024" version="1.1" xmlns="http://www.w3.org/2000/svg"><path d="M512 512m-512 0a512 512 0 1 0 1024 0 512 512 0 1 0-1024 0Z" fill="#FBD000" /><path d="M512 1024c80.8 0 156.8-18.4 224-52C724.8 857.6 627.2 768 508.8 768c-117.6 0-213.6 88-227.2 202.4 69.6 34.4 148 53.6 230.4 53.6z" fill="#3AD0F9" /><path d="M508 760c-120.8 0-220.8 88-236 204.8 4.8 2.4 10.4 5.6 15.2 8 11.2-112 106.4-196.8 220.8-196.8s208.8 85.6 220.8 200c4.8-2.4 10.4-4.8 15.2-7.2-15.2-120-116-208.8-236-208.8z" fill="#6B3C1C" /><path d="M543.2 796c0 18.4-12 33.6-29.6 33.6-18.4 0-34.4-15.2-34.4-33.6v-71.2c0-18.4 16-33.6 34.4-33.6s29.6 15.2 29.6 33.6v71.2z" fill="#F9D4CA" /><path d="M276 508m-43.2 0a43.2 43.2 0 1 0 86.4 0 43.2 43.2 0 1 0-86.4 0Z" fill="#F9D4CA" /><path d="M276 559.2c-28.8 0-51.2-23.2-51.2-51.2 0-28.8 23.2-51.2 51.2-51.2 28.8 0 51.2 23.2 51.2 51.2 0 28-23.2 51.2-51.2 51.2z m0-87.2c-20 0-35.2 16-35.2 35.2 0 20 16 35.2 35.2 35.2 20 0 35.2-16 35.2-35.2 0-19.2-16-35.2-35.2-35.2z" fill="#6B3C1C" /><path d="M747.2 508m-43.2 0a43.2 43.2 0 1 0 86.4 0 43.2 43.2 0 1 0-86.4 0Z" fill="#F9D4CA" /><path d="M514.4 840c-23.2 0-42.4-19.2-42.4-41.6v-72c0-23.2 19.2-41.6 42.4-41.6 21.6 0 37.6 17.6 37.6 41.6v72c0 24-16 41.6-37.6 41.6z m0-140c-14.4 0-26.4 12-26.4 25.6v72c0 13.6 12 25.6 26.4 25.6 15.2 0 21.6-13.6 21.6-25.6v-72c0-12-7.2-25.6-21.6-25.6zM747.2 559.2c-28.8 0-51.2-23.2-51.2-51.2 0-28.8 23.2-51.2 51.2-51.2 28.8 0 51.2 23.2 51.2 51.2 0.8 28-22.4 51.2-51.2 51.2z m0-87.2C728 472 712 488 712 508s16 35.2 35.2 35.2c20 0 35.2-16 35.2-35.2 0.8-20-15.2-36-35.2-36z" fill="#6B3C1C" /><path d="M511.2 218.4c119.2 0 216 96.8 216 216v86.4c0 119.2-96.8 216-216 216s-216-96.8-216-216V434.4c0-119.2 96.8-216 216-216z" fill="#F9D4CA" /><path d="M511.2 692c-119.2 0-216-96.8-216-216v44.8c0 119.2 96.8 216 216 216s216-96.8 216-216v-44.8c-0.8 119.2-96.8 216-216 216z" fill="#EFBFB4" /><path d="M512 743.2c-123.2 0-224-100-224-222.4V434.4c0-123.2 100.8-224 224-224s224 100 224 224v86.4c0 122.4-100.8 222.4-224 222.4z m0-516.8c-114.4 0-208 93.6-208 208v86.4c0 113.6 93.6 206.4 208 206.4s208-92.8 208-206.4V434.4c0-114.4-93.6-208-208-208z" fill="#6B3C1C" /><path d="M688 945.6c-3.2 0-6.4-1.6-7.2-4.8-4.8-12-9.6-22.4-14.4-32-2.4-4-0.8-8.8 3.2-11.2 4-2.4 8.8-0.8 11.2 3.2 5.6 10.4 10.4 21.6 15.2 34.4 1.6 4-0.8 8.8-4.8 10.4H688zM655.2 884.8c-2.4 0-4.8-0.8-6.4-3.2-20.8-28-44.8-40.8-64.8-49.6-4-1.6-5.6-6.4-4-10.4 1.6-4 6.4-5.6 10.4-4 22.4 10.4 48 23.2 71.2 55.2 2.4 3.2 1.6 8.8-1.6 11.2-1.6 0-3.2 0.8-4.8 0.8zM175.2 461.6c0-3.2-3.2-6.4-8-7.2l-15.2-2.4c-4-0.8-8.8-4.8-8.8-8.8l-2.4-15.2c-0.8-4-4-8-7.2-8s-6.4 3.2-7.2 8l-2.4 15.2c-0.8 4-4.8 8.8-8.8 8.8l-15.2 2.4c-4 0.8-8 4-8 7.2s3.2 6.4 8 7.2l15.2 2.4c4 0.8 8.8 4.8 8.8 8.8l2.4 15.2c0.8 4 4 8 7.2 8s6.4-3.2 7.2-8l2.4-16.8c0.8-4 4.8-8 8.8-8.8l14.4-0.8c5.6-1.6 8.8-4 8.8-7.2zM603.2 85.6c0-3.2-3.2-6.4-8-7.2l-15.2-2.4c-4-0.8-8.8-4.8-8.8-8.8l-2.4-15.2c-0.8-4-4-8-7.2-8s-6.4 3.2-7.2 8L552 67.2c-0.8 4-4.8 8.8-8.8 8.8l-15.2 2.4c-4 0.8-8 4-8 7.2s3.2 6.4 8 7.2l15.2 2.4c4 0.8 8.8 4.8 8.8 8.8l2.4 15.2c0.8 4 4 8 7.2 8s6.4-3.2 7.2-8l2.4-16.8c0.8-4 4.8-8 8.8-8.8l14.4-0.8c5.6-1.6 8.8-4 8.8-7.2zM248 784c-17.6 0-32-14.4-32-32s14.4-32 32-32 32 14.4 32 32-14.4 32-32 32z m0-48.8c-9.6 0-16.8 8-16.8 16.8 0 9.6 8 16.8 16.8 16.8 9.6 0 16.8-8 16.8-16.8 0-9.6-7.2-16.8-16.8-16.8zM800 752c-17.6 0-32-14.4-32-32s14.4-32 32-32 32 14.4 32 32-14.4 32-32 32z m0-48.8c-9.6 0-16.8 8-16.8 16.8 0 9.6 7.2 16.8 16.8 16.8 9.6 0 16.8-8 16.8-16.8 0-9.6-7.2-16.8-16.8-16.8zM872 440c-17.6 0-32-14.4-32-32s14.4-32 32-32 32 14.4 32 32-14.4 32-32 32z m0-48.8c-9.6 0-16.8 8-16.8 16.8 0 9.6 8 16.8 16.8 16.8 9.6 0 16.8-8 16.8-16.8 0-9.6-7.2-16.8-16.8-16.8z" fill="#FFFFFF" /><path d="M763.2 528.8c0 35.2-28.8 64-64 64H324.8c-35.2 0-64-28.8-64-64v-77.6c0-35.2 28.8-64 64-64h374.4c35.2 0 64 28.8 64 64v77.6z" fill="#415E6D" /><path d="M699.2 536H324.8c-35.2 0-64-38.4-64-73.6v66.4c0 35.2 28.8 64 64 64h374.4c35.2 0 64-28.8 64-64v-66.4c0 35.2-28.8 73.6-64 73.6z" fill="#2D4552" /><path d="M696 600H328c-40 0-72-32-72-72v-72c0-40 32-72 72-72h368c40 0 72 32 72 72v72.8c0 40-32 71.2-72 71.2zM328 400c-31.2 0-56 24.8-56 56v72c0 31.2 24.8 56 56 56l368 0.8v8-8c31.2 0 56-24.8 56-56V456c0-31.2-24.8-56-56-56H328zM536 659.2c0 16-12.8 28.8-28.8 28.8S480 675.2 480 659.2v-15.2c0-16 12-28.8 27.2-28.8 16 0 28.8 12.8 28.8 28.8v15.2z" fill="#6B3C1C" /><path d="M335.2 304s-4-97.6 97.6-137.6 185.6 56 249.6 46.4 80-38.4 80-38.4 0 132-110.4 153.6-244.8 33.6-316.8-24z" fill="#F99900" /><path d="M729.6 279.2c-99.2 48-195.2 42.4-269.6 24.8-86.4-20-95.2-76-95.2-76H360l-6.4 5.6c-20 36-18.4 70.4-18.4 70.4 72 57.6 208 46.4 318.4 24 36-7.2 60-26.4 76-48.8z" fill="#D6742B" /><path d="M506.4 360c-73.6 0-136-18.4-176-51.2-1.6-1.6-3.2-4-3.2-6.4 0-0.8-3.2-105.6 102.4-148 17.6-7.2 35.2-10.4 54.4-10.4 41.6 0 80 17.6 113.6 33.6 26.4 12 52 24 72.8 24 3.2 0 5.6 0 8.8-0.8 58.4-9.6 73.6-34.4 73.6-34.4 1.6-3.2 5.6-4.8 8.8-4 3.2 0.8 5.6 4 5.6 8 0 1.6-5.6 124-114.4 164-43.2 16.8-96 25.6-146.4 25.6zM344 298.4C380.8 328 438.4 344 506.4 344c48.8 0 99.2-8.8 141.6-24.8 72-26.4 94.4-92 100.8-127.2-12.8 8.8-33.6 19.2-67.2 24.8-3.2 0.8-7.2 0.8-11.2 0.8-24.8 0-51.2-12-79.2-25.6-32-15.2-68.8-32-107.2-32-16.8 0-32.8 3.2-48 9.6C351.2 204 344 280.8 344 298.4z" fill="#6B3C1C" /><path d="M712 432h-73.6c-4.8 0-8-3.2-8-8s3.2-8 8-8H712c4.8 0 8 3.2 8 8s-3.2 8-8 8zM581.6 432H319.2c-4.8 0-8-3.2-8-8s3.2-8 8-8h261.6c4.8 0 8 3.2 8 8s-3.2 8-7.2 8zM404 228c-2.4 0-4.8-0.8-5.6-2.4-3.2-3.2-2.4-8 0.8-11.2 1.6-1.6 38.4-34.4 84-34.4 51.2 0 100.8 30.4 103.2 32 4 2.4 4.8 7.2 2.4 11.2-2.4 4-7.2 4.8-11.2 2.4-0.8 0-47.2-29.6-94.4-29.6-39.2 0-72.8 29.6-73.6 29.6-1.6 1.6-4 2.4-5.6 2.4z" fill="#FFFFFF" opacity=".5" /></svg>