<?xml version="1.0" standalone="no"?><!DOCTYPE svg PUBLIC "-//W3C//DTD SVG 1.1//EN" "http://www.w3.org/Graphics/SVG/1.1/DTD/svg11.dtd"><svg t="1713512339875" class="icon" viewBox="0 0 1024 1024" version="1.1" xmlns="http://www.w3.org/2000/svg" p-id="10530" xmlns:xlink="http://www.w3.org/1999/xlink" width="200" height="200"><path d="M508.672 513.792m-443.8528 0a443.8528 443.8528 0 1 0 887.7056 0 443.8528 443.8528 0 1 0-887.7056 0Z" fill="#FFB82B" p-id="10531"></path><path d="M508.672 504.4224m-402.4832 0a402.4832 402.4832 0 1 0 804.9664 0 402.4832 402.4832 0 1 0-804.9664 0Z" fill="#FFD029" p-id="10532"></path><path d="M508.672 491.1616m-345.2928 0a345.2928 345.2928 0 1 0 690.5856 0 345.2928 345.2928 0 1 0-690.5856 0Z" fill="#FEDB44" p-id="10533"></path><path d="M508.672 472.8832m-282.3168 0a282.3168 282.3168 0 1 0 564.6336 0 282.3168 282.3168 0 1 0-564.6336 0Z" fill="#FFE36E" p-id="10534"></path><path d="M706.2528 423.0144l11.6224-11.3152c18.1248-17.664 28.3136-41.3184 28.672-66.6112s-9.1648-49.2032-26.8288-67.328c-17.664-18.1248-41.2672-28.3136-66.56-28.672-25.088-0.2048-49.2032 9.1648-67.3792 26.8288L505.2928 354.2016 423.3216 275.456c-37.6832-36.1472-97.7408-34.9696-133.9392 2.7136-36.1472 37.6832-34.9696 97.7408 2.7136 133.9392l12.1344 11.6736c-22.3744 17.3568-36.864 44.4928-36.864 74.9056 0 25.9584 10.496 49.5104 27.4432 66.6112a94.39232 94.39232 0 0 0-27.4432 66.6112c0 52.224 42.496 94.72 94.72 94.72h48.9984c1.792 50.6368 43.5712 91.2896 94.6688 91.2896s92.8256-40.6528 94.6688-91.2896h48.9472c52.224 0 94.72-42.496 94.72-94.72 0-25.9584-10.496-49.5104-27.4432-66.6112 16.9472-17.1008 27.4432-40.6528 27.4432-66.6112 0-30.8736-14.8992-58.368-37.8368-75.6736z" fill="#FFB82B" p-id="10535"></path><path d="M649.3696 555.008c31.1296 0 56.32-25.1904 56.32-56.32s-25.1904-56.32-56.32-56.32h-18.1248l59.8528-58.2144c22.272-21.7088 22.784-57.344 1.0752-79.616-21.7088-22.272-57.344-22.784-79.616-1.0752L505.4976 407.6544l-108.8-104.448c-22.4256-21.5552-58.0608-20.8384-79.616 1.6384-21.5552 22.4256-20.8384 58.112 1.6384 79.616L379.0336 442.368h-16.9472c-31.1296 0-56.32 25.1904-56.32 56.32s25.1904 56.32 56.32 56.32h87.296v20.5824H362.0864c-31.1296 0-56.32 25.1904-56.32 56.32s25.1904 56.32 56.32 56.32h87.296v34.9696c0 31.1296 25.1904 56.32 56.32 56.32s56.32-25.1904 56.32-56.32v-34.9696h87.296c31.1296 0 56.32-25.1904 56.32-56.32s-25.1904-56.32-56.32-56.32h-87.296v-20.5824h87.3472z" fill="#EC4E1F" p-id="10536"></path><path d="M649.3696 531.968a33.28 33.28 0 1 0 0-66.56h-74.8032l100.4544-97.792c13.1584-12.8 13.4656-33.8944 0.6656-47.0528s-33.8944-13.4656-47.0528-0.6656L505.6 439.6544 380.7232 319.7952c-13.2608-12.7488-34.304-12.288-47.0528 0.9728s-12.288 34.304 0.9728 47.0528L436.3264 465.408h-74.24a33.28 33.28 0 1 0 0 66.56h110.336v66.6624H362.0864a33.28 33.28 0 1 0 0 66.56h110.336v58.0096a33.28 33.28 0 1 0 66.56 0v-58.0096h110.336a33.28 33.28 0 1 0 0-66.56h-110.336V531.968h110.3872z" fill="#F67D00" p-id="10537"></path><path d="M649.3696 514.048c8.4992 0 15.36-6.8608 15.36-15.36s-6.8608-15.36-15.36-15.36H530.432l132.096-128.512a15.36 15.36 0 0 0 0.3072-21.7088 15.36 15.36 0 0 0-21.7088-0.3072L505.6512 464.5888 368.3328 332.7488c-6.144-5.888-15.8208-5.6832-21.7088 0.4608s-5.6832 15.8208 0.4608 21.7088L480.8192 483.328H362.0864c-8.4992 0-15.36 6.8608-15.36 15.36s6.8608 15.36 15.36 15.36h128.256v102.5024H362.0864c-8.4992 0-15.36 6.8608-15.36 15.36s6.8608 15.36 15.36 15.36h128.256v75.9296c0 8.4992 6.8608 15.36 15.36 15.36s15.36-6.8608 15.36-15.36v-75.9296h128.256c8.4992 0 15.36-6.8608 15.36-15.36s-6.8608-15.36-15.36-15.36h-128.256V514.048h128.3072z" fill="#F59633" p-id="10538"></path></svg>